<svg width="32" height="32" viewBox="0 0 32 32" fill="none" xmlns="http://www.w3.org/2000/svg">
<g clip-path="url(#clip0_27_2590)">
<circle cx="16" cy="16" r="16" fill="white"/>
<path d="M23.5833 12H22.695L20.8533 7.32C20.7009 6.9341 20.4239 6.60065 20.0597 6.36462C19.6955 6.12858 19.2617 6.00132 18.8167 6H17.0833C16.4875 6 16 6.45 16 7C16 7.55 16.4875 8 17.0833 8H18.8167L20.3983 12H15.1875L14.7975 11H14.895C15.4908 11 15.9783 10.55 15.9783 10C15.9783 9.45 15.4908 9 14.895 9H11.6667C11.0708 9 10.5833 9.45 10.5833 10C10.5833 10.55 11.0708 11 11.6667 11H12.4792L14.4508 16H13.725C13.2483 13.77 11.2225 12.12 8.6875 12.01C5.65417 11.87 3 14.2 3 17C3 19.8 5.38333 22 8.41667 22C11.0817 22 13.2375 20.31 13.725 18H18.275C18.7517 20.23 20.7775 21.88 23.3125 21.99C26.3458 22.12 29 19.8 29 16.99C29 14.2 26.6167 12 23.5833 12ZM9.5 18H11.4717C11.0167 19.23 9.73833 20.08 8.2 19.99C6.58583 19.9 5.2425 18.64 5.16667 17.14C5.09083 15.39 6.5425 14 8.41667 14C9.8575 14 11.0383 14.83 11.4717 16H9.5C8.90417 16 8.41667 16.45 8.41667 17C8.41667 17.55 8.90417 18 9.5 18ZM18.275 16H16.7583L15.9675 14H19.25C18.7733 14.58 18.4267 15.25 18.275 16ZM23.4533 20C21.785 19.94 20.3767 18.63 20.3333 17.08C20.3117 16.12 20.7558 15.28 21.4708 14.72L22.1425 16.42C22.3483 16.94 22.9658 17.21 23.5292 17.02C24.0925 16.83 24.385 16.26 24.1792 15.74L23.4967 14.01L23.5075 14C23.9418 13.9863 24.3747 14.0541 24.7799 14.1991C25.1851 14.3441 25.5543 14.5634 25.8651 14.8438C26.1759 15.1242 26.422 15.4598 26.5884 15.8304C26.7548 16.201 26.8381 16.5989 26.8333 17C26.8333 18.72 25.3383 20.06 23.4533 20Z" fill="url(#paint0_linear_27_2590)"/>
</g>
<defs>
<linearGradient id="paint0_linear_27_2590" x1="16" y1="6" x2="16" y2="22" gradientUnits="userSpaceOnUse">
<stop stop-color="#FFB60D"/>
<stop offset="1" stop-color="#E59317"/>
</linearGradient>
<clipPath id="clip0_27_2590">
<rect width="32" height="32" fill="white"/>
</clipPath>
</defs>
</svg>
